{"title":"Married At First Sight Au - S03E05","uid":15777969,"size":388480858,"categoryP":"video","categoryS":"tv_shows","magnet":"?xt=urn:btih:0340223aefb80ef8e2fc7f144254a149457be76c&amp;dn=Married+At+First+Sight+Au+-+S03E05&amp;tr=udp%3A%2F%2Ftracker.leechers-paradise.org%3A6969&amp;tr=udp%3A%2F%2Fzer0day.ch%3A1337&amp;tr=udp%3A%2F%2Fopen.demonii.com%3A1337&amp;tr=udp%3A%2F%2Ftracker.coppersurfer.tk%3A6969&amp;tr=udp%3A%2F%2Fexodus.desync.com%3A6969","seeders":7,"leechers":2,"uploader":"Bullrout","files":1,"time":1473255043,"description":"Married At First Sight Au - S03E05\r\n\r\n\r\nOur couples are set to return from their honeymoons and enter the third phase of the experiment: moving in together. But pressure is mounting on some couples as they grapple with trust issues.\r\n\r\nComplete name                            : Married At First Sight Au - S03E05.mp4\r\nFormat                                   : MPEG-4\r\nFormat profile                           : Base Media / Version 2\r\nCodec ID                                 : mp42 (mp42/isom/avc1)\r\nFile size                                : 370 MiB\r\nDuration                                 : 46mn 43s\r\nOverall bit rate mode                    : Variable\r\nOverall bit rate                         : 1 109 Kbps\r\n\r\nVideo\r\nID                                       : 2\r\nFormat                                   : AVC\r\nFormat/Info                              : Advanced Video Codec\r\nFormat profile                           :   \r\nFormat settings, CABAC                   : Yes\r\nFormat settings, ReFrames                : 3 frames\r\nCodec ID                                 : avc1\r\nCodec ID/Info                            : Advanced Video Coding\r\nDuration                                 : 46mn 43s\r\nBit rate mode                            : Variable\r\nBit rate                                 : 977 Kbps\r\nMaximum bit rate                         : 1 000 Kbps\r\nWidth                                    : 720 pixels\r\nHeight                                   : 404 pixels\r\nDisplay aspect ratio                     : 16:9\r\nOriginal display aspect ratio            : 16:9\r\nFrame rate mode                          : Constant\r\nFrame rate                               : 25.000 fps\r\nStandard                                 : PAL\r\nColor space                              : YUV\r\nChroma subsampling                       : 4:2:0\r\nBit depth                                : 8 bits\r\nScan type                                : Progressive\r\nBits/(Pixel*Frame)                       : 0.134\r\nStream size                              : 327 MiB (88%)\r\nWriting library                          : x264 core 112\r\nColor range                              : Limited\r\nColor primaries                          : BT.601 PAL\r\nTransfer characteristics                 : BT.470 System B, BT.470 System G\r\nMatrix coefficients                      : BT.601\r\n\r\nAudio\r\nID                                       : 1\r\nFormat                                   : AAC\r\nFormat/Info                              : Advanced Audio Codec\r\nFormat profile                           : LC\r\nCodec ID                                 : 40\r\nDuration                                 : 46mn 43s\r\nBit rate mode                            : Variable\r\nBit rate                                 : 128 Kbps\r\nMaximum bit rate                         : 576 Kbps\r\nChannel(s)                               : 2 channels\r\nChannel positions                        : Front: L R\r\nSampling rate                            : 48.0 KHz\r\nFrame rate                               : 46.875 fps (1024 spf)\r\nCompression mode                         : Lossy\r\nStream size                              : 42.8 MiB (12%)","torrent":{"xt":"urn:btih:0340223aefb80ef8e2fc7f144254a149457be76c","amp;dn":"Married+At+First+Sight+Au+-+S03E05","amp;tr":["udp%3A%2F%2Ftracker.leechers-paradise.org%3A6969","udp%3A%2F%2Fzer0day.ch%3A1337","udp%3A%2F%2Fopen.demonii.com%3A1337","udp%3A%2F%2Ftracker.coppersurfer.tk%3A6969","udp%3A%2F%2Fexodus.desync.com%3A6969"],"infoHash":"0340223aefb80ef8e2fc7f144254a149457be76c","infoHashBuffer":{"type":"Buffer","data":[3,64,34,58,239,184,14,248,226,252,127,20,66,84,161,73,69,123,231,108]},"announce":[],"urlList":[]}}